<?xml version="1.0" encoding="UTF-8"?>
<svg width="94px" height="94px" viewBox="0 0 94 94" version="1.1" xmlns="http://www.w3.org/2000/svg" xmlns:xlink="http://www.w3.org/1999/xlink">
    <title>A9AF6EAD-90F1-4122-A409-12BFC277ACA0</title>
    <g id="Impact-Counter-6R" stroke="none" stroke-width="1" fill="none" fill-rule="evenodd">
        <g id="6R-start-Copy-2" transform="translate(-912.000000, -948.000000)">
            <g id="Group-2-Copy" transform="translate(912.000000, 948.000000)">
                <circle id="Oval-Copy" stroke="#EBD730" stroke-width="6" cx="47" cy="47" r="44"></circle>
                <path d="M32.3108734,54.1410801 L29,54.1410801 L29,50.0081125 L31.6594284,50.0081125 C31.6594284,49.5950707 31.6006706,49.1233872 31.6006706,48.6466043 C31.6006706,47.9989956 31.6594284,47.3488372 31.6594284,46.7573206 L29,46.7573206 L29,42.6294522 L32.3721859,42.6294522 C34.3827239,35.5440006 40.3555804,32 49.9969663,32 C54.8457608,32 57.8066422,32.7699915 60.9386875,34.1264004 L58.3967747,40.6764274 C54.7895577,39.73561 53.5454255,39.5571351 50.0557241,39.4984934 C46.742296,39.437302 44.0215552,40.4418605 42.4861887,42.6294522 L53.6629411,42.6294522 L53.6629411,46.7573206 L41.0070254,46.7573206 C40.9457129,47.2341034 40.9457129,47.7057869 40.9457129,48.2335625 C40.9457129,48.8837209 40.9457129,49.4726879 41.0632285,50.0081125 L53.6629411,50.0081125 L53.6629411,54.1410801 L42.7212199,54.1410801 C44.4354143,56.3235726 47.3349832,57.4428649 51.0035127,57.4428649 C54.0768003,57.4428649 55.9136197,57.2082979 58.9869072,56.4383064 L61,63.2305493 C57.1526425,64.5869582 54.3731439,65 50.1732397,65 C40.3555804,65 34.2626537,61.1627907 32.3108734,54.1410801" id="Fill-1" fill="#EBD730"></path>
            </g>
        </g>
    </g>
</svg>