<?xml version="1.0" encoding="UTF-8"?>
<svg width="88px" height="110px" viewBox="0 0 88 110" version="1.1" xmlns="http://www.w3.org/2000/svg" xmlns:xlink="http://www.w3.org/1999/xlink">
    <title>F2DD95D5-E61C-4609-8057-9C564075EF05</title>
    <g id="Impact-Counter-6R" stroke="none" stroke-width="1" fill="none" fill-rule="evenodd">
        <g id="6R-start-Copy-2" transform="translate(-653.000000, -936.000000)" stroke="#EBD730" stroke-width="6">
            <g id="Group-4-Copy" transform="translate(653.000000, 936.000000)">
                <circle id="Oval" cx="44" cy="66" r="41"></circle>
                <path d="M44.4782609,3 C48.8004893,3 52.7135328,4.75192924 55.5460192,7.5844156 C58.3785055,10.416902 60.1304348,14.3299454 60.1304348,18.6524823 L60.1304348,18.6524823 L60.1313848,27.8942523 C67.8437979,31.2154286 74.3371372,36.8449255 78.7532821,43.916459 C82.7122975,50.2559951 85,57.7554396 85,65.7915001 C85,77.1725414 80.4097496,87.4767734 72.9863698,94.9353299 C65.5681108,102.388741 55.3202213,107 44,107 C32.6797787,107 22.4318892,102.388741 15.0136302,94.9353299 C7.59025044,87.4767734 3,77.1725414 3,65.7915001 C3,57.5782998 5.38973551,49.9256454 9.51095276,43.4989263 C14.1047692,36.3352254 20.8475507,30.6933839 28.8252654,27.4967007 L28.8252654,27.4967007 L28.826087,18.6521739 C28.826087,14.3299454 30.5780162,10.416902 33.4105026,7.5844156 C36.2429889,4.75192924 40.1560324,3 44.4782609,3 Z" id="Combined-Shape"></path>
                <path d="M44.5,47 C47.9561821,47 51.0868366,48.3803733 53.3523507,50.6172904 C55.6039843,52.8405023 57,55.9109106 57,59.3043478 C57,64.0780536 54.2374588,68.2096846 50.218685,70.2490183 L50.218685,70.2490183 L50.218739,85 L39.7500869,85 L39.7505014,70.6903935 C37.1783731,69.6487688 35.0336775,67.7861112 33.6563933,65.4302642 C32.6024663,63.6275202 32,61.5353632 32,59.3043478 C32,55.9109106 33.3960157,52.8405023 35.6476493,50.6172904 C37.9131634,48.3803733 41.0438179,47 44.5,47 Z" id="Combined-Shape"></path>
            </g>
        </g>
    </g>
</svg>