<?xml version="1.0" encoding="UTF-8"?>
<svg width="63px" height="32px" viewBox="0 0 63 32" version="1.1" xmlns="http://www.w3.org/2000/svg" xmlns:xlink="http://www.w3.org/1999/xlink">
    <title>1E124AAA-522D-43B4-8CC3-38098FB44805</title>
    <defs>
        <polygon id="path-1" points="0 0 63 0 63 32 0 32"></polygon>
    </defs>
    <g id="Impact-Counter" stroke="none" stroke-width="1" fill="none" fill-rule="evenodd">
        <g id="3R-Object" transform="translate(-1130.000000, -565.000000)">
            <g id="Group-3" transform="translate(1130.000000, 565.000000)">
                <mask id="mask-2" fill="white">
                    <use xlink:href="#path-1"></use>
                </mask>
                <g id="Clip-2"></g>
                <path d="M44.5520253,20.1096778 C45.6377998,20.1096778 46.1611348,19.5857314 46.6711576,18.6656918 C47.2552294,17.6127853 48.1729377,16.2515277 48.1729377,16.2515277 L56.4872249,16.2515277 C55.6335815,20.8467123 54.8323548,25.1034627 54.0236399,29.4504622 L8.94028498,29.4504622 C8.13157016,25.1034627 7.33783155,20.8467123 6.51414053,16.4019429 L15.1179676,16.4019429 C15.4998607,17.1464981 15.9341705,17.8985742 16.2777911,18.688254 C16.7054448,19.6509114 17.3485894,20.1096778 18.434364,20.1096778 C22.7891102,20.0988144 27.1413604,20.092965 31.4936106,20.092965 C35.8458608,20.092965 40.198111,20.0988144 44.5520253,20.1096778 M11.336477,13.8290072 C7.52420204,13.8290072 2.44810215,13.717867 2.44810215,13.717867 L2.44810215,10.6493968 L60.5083347,10.5441061 L60.5083347,13.7245521 C60.5083347,13.7245521 55.1435269,13.8273359 51.2480508,13.8273359 C50.1855726,13.8273359 49.2337519,13.8198151 48.5282064,13.7997598 C48.4549895,13.7980885 48.3834365,13.7972528 48.3135476,13.7972528 C46.926585,13.7972528 45.9880765,14.2334569 45.5105021,15.6573876 C45.2933472,16.2966522 44.8889898,16.86823 44.4921205,17.6127853 L18.5242212,17.6127853 C18.1872567,17.0036037 17.7604349,16.4470674 17.5516002,15.8153235 C17.0365853,14.2643756 16.0365079,13.7872252 14.5397199,13.7872252 C14.4473666,13.7872252 14.3525174,13.7888964 14.2568361,13.792239 C13.5113541,13.8189795 12.4804923,13.8290072 11.336477,13.8290072 M26.4241668,7.92604586 C16.7012848,7.92604586 8.06334525,7.83746801 6.90352174,7.6410926 C7.51005785,5.93387998 8.10161776,4.27179193 8.71564198,2.54201703 L54.248283,2.54201703 C54.8623072,4.22666736 55.446379,5.85115162 56.0379389,7.47563587 C55.222568,7.75808221 39.7987457,7.92604586 26.4241668,7.92604586 M53.4844967,0 L9.50189249,0 C7.08323614,0.00752076043 6.28200943,2.24870737 6.28200943,2.24870737 C6.28200943,2.24870737 4.8667585,5.95644226 4.11794848,7.89679845 C3.63871007,7.89679845 3.1994082,7.89512717 2.77841057,7.89512717 C2.35824495,7.89512717 1.9580476,7.89679845 1.55701823,7.90431921 C0.487051922,7.91183997 -0.0146507876,8.45333473 4.97382083e-14,9.54384499 C0.021957702,11.2284953 0.021957702,12.91231 4.97382083e-14,14.6044811 C-0.00799469856,15.7108685 0.561932924,16.1988823 1.60194683,16.2289654 C1.91727905,16.2389931 2.23427529,16.2415 2.5637517,16.2415 C3.00055754,16.2415 3.45982768,16.2364861 3.96818648,16.2364861 C4.16287708,17.1314566 4.31263909,17.7255967 4.42496059,18.3347783 C5.1363301,22.1402831 5.81774722,25.9457879 6.53660483,29.7512926 C6.92598604,31.7810623 7.17309334,31.9615606 9.26976139,32 L52.9603297,32 C53.4545443,32 53.956247,31.9916436 54.4504617,31.9841228 C55.446379,31.9615606 56.1128199,31.540398 56.2775581,30.4874915 C56.344951,30.0512874 56.4647606,29.6301248 56.5471297,29.2022771 C57.2659873,25.3366063 57.9698687,21.4709354 58.7037025,17.6052645 C58.7785835,17.1916227 58.9508098,16.7930224 59.1230361,16.2448425 C59.5648341,16.2448425 59.9933198,16.2557059 60.4118214,16.2557059 C60.6739049,16.2557059 60.9326604,16.2515277 61.1897518,16.2364861 C62.6124908,16.146237 62.9344791,15.8378858 62.9719196,14.4164621 C63.0093601,12.8605003 63.0093601,11.2961822 62.9719196,9.731864 C62.9419672,8.25027419 62.6723956,7.97952682 61.2346804,7.90431921 C60.9393164,7.88760641 60.6447845,7.88175693 60.3477565,7.88175693 C59.8527099,7.88175693 59.3535032,7.89679845 58.8384883,7.89679845 C58.067214,5.86619314 57.3558445,4.06873139 56.6968917,2.25622813 C55.8806888,0.0225622813 53.4844967,0 53.4844967,0" id="Fill-1" fill="#9AB7DB" mask="url(#mask-2)"></path>
            </g>
        </g>
    </g>
</svg>