<?xml version="1.0" encoding="UTF-8"?>
<svg width="71px" height="36px" viewBox="0 0 71 36" version="1.1" xmlns="http://www.w3.org/2000/svg" xmlns:xlink="http://www.w3.org/1999/xlink">
    <title>0B120A33-886D-4A53-97B2-7D54C79DD754</title>
    <defs>
        <polygon id="path-1" points="0 0 71 0 71 36 0 36"></polygon>
    </defs>
    <g id="Impact-Counter" stroke="none" stroke-width="1" fill="none" fill-rule="evenodd">
        <g id="3R-Object" transform="translate(-797.000000, -563.000000)">
            <g id="Group-3-Copy" transform="translate(797.000000, 563.000000)">
                <mask id="mask-2" fill="white">
                    <use xlink:href="#path-1"></use>
                </mask>
                <g id="Clip-2"></g>
                <path d="M50.2095281,22.6233875 C51.4331727,22.6233875 52.0229601,22.0339479 52.5977448,20.9989032 C53.2559812,19.8143835 54.2902188,18.2829686 54.2902188,18.2829686 L63.6602421,18.2829686 C62.6982043,23.4525513 61.795239,28.2413955 60.8838347,33.13177 L10.0758606,33.13177 C9.16445637,28.2413955 8.26992997,23.4525513 7.34164786,18.4521857 L17.0379764,18.4521857 C17.4683618,19.2898104 17.9578196,20.135896 18.3450727,21.0242858 C18.8270292,22.1072753 19.5518394,22.6233875 20.775484,22.6233875 C25.6831896,22.6111662 30.5880823,22.6045856 35.4929749,22.6045856 C40.3978675,22.6045856 45.3027602,22.6111662 50.2095281,22.6233875 M12.7763177,15.557633 C8.47996552,15.557633 2.75930981,15.4326004 2.75930981,15.4326004 L2.75930981,11.9805714 L68.1919466,11.8621194 L68.1919466,15.4401212 C68.1919466,15.4401212 62.1459233,15.5557529 57.7558053,15.5557529 C56.5584152,15.5557529 55.4857336,15.547292 54.6905991,15.5247297 C54.6080851,15.5228495 54.5274464,15.5219094 54.4486831,15.5219094 C52.8856061,15.5219094 51.8279271,16.0126391 51.289711,17.614561 C51.044982,18.3337337 50.5892799,18.9767588 50.1420167,19.8143835 L20.8767511,19.8143835 C20.4969994,19.1290542 20.0159805,18.5029509 19.7806281,17.792239 C19.2002174,16.0474226 18.0731516,15.5106283 16.3863036,15.5106283 C16.2822235,15.5106283 16.1753304,15.5125085 16.0674997,15.5162689 C15.2273575,15.5463519 14.0655984,15.557633 12.7763177,15.557633 M29.7798205,8.91680159 C18.8223409,8.91680159 9.08756835,8.81715151 7.78047213,8.59622917 C8.46402532,6.67561498 9.13070065,4.80576592 9.82269277,2.85976915 L61.1370026,2.85976915 C61.8289947,4.75500078 62.4872311,6.58254557 63.1539064,8.41009035 C62.2350009,8.72784248 44.852684,8.91680159 29.7798205,8.91680159 M60.2762319,0 L10.7087802,0 C7.98300641,0.00846085549 7.08004108,2.52979579 7.08004108,2.52979579 C7.08004108,2.52979579 5.48508364,6.70099755 4.64119081,8.88389826 C4.10109941,8.88389826 3.60601561,8.88201807 3.13156031,8.88201807 C2.65804267,8.88201807 2.20702884,8.88389826 1.75507735,8.89235912 C0.549248263,8.90081997 -0.0161599307,9.51000157 0.000351192667,10.7368256 C0.0250970519,12.6320572 0.0250970519,14.5263488 0.000351192667,16.4300413 C-0.00865866115,17.6747271 0.633637546,18.2237426 1.80571092,18.257586 C2.16108356,18.2688672 2.51833153,18.2716875 2.88964437,18.2716875 C3.38191518,18.2716875 3.89950279,18.2660469 4.47241225,18.2660469 C4.69182438,19.2728887 4.86060295,19.9412963 4.98718687,20.6266256 C5.78888506,24.9078185 6.55682753,29.1890113 7.36696464,33.4702042 C7.80578891,35.7536951 8.08427355,35.9567556 10.4471735,36 L59.6855069,36 C60.2424762,36 60.8078844,35.990599 61.3648537,35.9821382 C62.4872311,35.9567556 63.2382957,35.4829477 63.4239521,34.298428 C63.4999025,33.8076983 63.6349254,33.3338904 63.7277536,32.8525618 C64.5378907,28.503682 65.3311499,24.1548023 66.1581649,19.8059226 C66.2425542,19.3405755 66.4366495,18.8921502 66.6307449,18.2754479 C67.1286417,18.2754479 67.6115359,18.2876691 68.0831782,18.2876691 C68.3785407,18.2876691 68.6701526,18.2829686 68.9598891,18.2660469 C70.5632855,18.1645166 70.9261594,17.8176216 70.968354,16.2185199 C71.0105487,14.4680629 71.0105487,12.7082049 70.968354,10.948347 C70.9345983,9.28155847 70.6307969,8.97696767 69.0105227,8.89235912 C68.6776538,8.87355722 68.3457226,8.86697655 68.0109785,8.86697655 C67.4530716,8.86697655 66.8904763,8.88389826 66.3100656,8.88389826 C65.440856,6.59946728 64.6391578,4.57732282 63.8965321,2.53825665 C62.9766889,0.0253825665 60.2762319,0 60.2762319,0" id="Fill-1" fill="#DEDEE6" mask="url(#mask-2)"></path>
            </g>
        </g>
    </g>
</svg>