<?xml version="1.0" encoding="UTF-8"?>
<svg width="24px" height="74px" viewBox="0 0 24 74" version="1.1" xmlns="http://www.w3.org/2000/svg" xmlns:xlink="http://www.w3.org/1999/xlink">
    <title>CF98D7CA-2D01-4B43-B990-B44AA3687B30</title>
    <defs>
        <polygon id="path-1" points="6.54670269e-16 0 24 0 24 74 6.54670269e-16 74"></polygon>
    </defs>
    <g id="Impact-Counter" stroke="none" stroke-width="1" fill="none" fill-rule="evenodd">
        <g id="3R-Object" transform="translate(-930.000000, -544.000000)">
            <g id="Group-8-Copy" transform="translate(930.000000, 544.000000)">
                <g id="Group-3">
                    <mask id="mask-2" fill="white">
                        <use xlink:href="#path-1"></use>
                    </mask>
                    <g id="Clip-2"></g>
                    <path d="M12.6979013,7.47486693 C10.8609046,7.47486693 9.02390787,7.47486693 7.18785275,7.47486693 C6.13423957,7.47393575 6.0711546,7.41154664 6.06738833,6.38352313 C6.0626805,5.38809095 6.08998594,4.39265877 6.06362207,3.39815777 C6.04949857,2.87483421 6.25758481,2.58058111 6.76508928,2.48373831 C7.16431358,2.40831268 7.5625963,2.31146988 7.96652843,2.27329147 C9.22634472,2.15223798 10.4852194,2.0982295 11.7440942,2.0982295 C13.174334,2.0982295 14.6036323,2.16899923 16.0329306,2.29191509 C17.9038237,2.45300935 17.9028822,2.46325234 17.9028822,4.29674716 C17.9028822,4.82658898 17.8953496,6.41704564 17.9028822,6.88822308 C17.9113563,7.47859165 17.794602,7.43948206 17.34265,7.45438095 C17.0564137,7.46369276 16.8021906,7.47393575 16.3718946,7.47393575 C15.1469163,7.47486693 13.9228796,7.47486693 12.6979013,7.47486693 M11.5764953,-0.000651826498 C9.52482137,-0.000651826498 7.47691373,0.160442437 5.43748019,0.580404938 C4.45825079,0.781539972 4.18707957,1.02271578 4.1833133,2.02466622 C4.17389764,4.01646176 4.19649524,6.00825731 4.17107294,7.99912167 C4.16165727,8.6975072 4.33019771,9.21151896 5.0834511,9.40054864 C5.19455597,9.42941524 5.28118011,9.556987 5.43465549,9.68455876 C4.68234367,10.3773572 3.97146079,10.9612075 3.34531891,11.6242082 C1.81433141,13.2444626 0.644905525,15.0826133 0.428345177,17.3435201 C0.274869799,18.9460821 0.226849896,20.563543 0.217434229,22.1754168 C0.132693223,36.94953 0.0620757181,51.7236432 0.000873880482,66.4977564 C-0.00760022011,68.4625477 0.0470106503,70.4264078 0.101621521,72.3902679 C0.125160689,73.2329864 0.498962682,73.7144069 1.33036611,73.8615334 C1.86423444,73.9555827 6.78674532,74.0002794 11.7779906,74.0002794 C16.983913,74.0002794 22.2651608,73.951858 22.712405,73.8615334 C23.4628337,73.709751 23.9110195,73.1305566 23.9741044,72.3707131 C23.9985852,72.0755288 24.0014099,71.7794134 23.9995267,71.4832979 C23.8959544,53.7759655 23.7904989,36.0695642 23.6878682,18.3622318 C23.6812772,17.1889441 23.4308204,16.0761832 22.9572124,15.0006694 C22.1465234,13.1606564 20.8857656,11.6735608 19.3585443,10.3838755 C19.1193864,10.1818093 18.8952935,9.96391297 18.5883427,9.68362758 C18.8566893,9.50670324 19.0139309,9.36516377 19.1994195,9.28787578 C19.6871511,9.08208484 19.8952374,8.73289207 19.8924127,8.21422441 C19.8839386,6.08833885 19.8980621,3.96245328 19.8848801,1.83563654 C19.8801723,1.16797997 19.5543902,0.774090526 18.8971766,0.651174672 C17.9895063,0.482630963 17.0780697,0.309431351 16.1600421,0.226556267 C14.6299962,0.0887415219 13.1018334,-0.000651826498 11.5764953,-0.000651826498 M15.0621753,10.2674779 L16.673196,11.736881 L16.9396594,11.9836439 C17.1496288,12.1782607 17.3332343,12.3477356 17.5243723,12.5088299 C18.8679881,13.6420768 19.7973144,14.8228139 20.3679039,16.1171551 C20.6965106,16.8630309 20.8584601,17.6033195 20.863168,18.3780619 L21.0335915,47.3703734 L21.1729434,71.1368987 C19.4574088,71.1750771 16.0875415,71.2067372 11.7779906,71.2067372 C7.56636257,71.2067372 4.49685503,71.1769394 2.89336688,71.1396922 C2.85287951,69.6023129 2.81898311,68.0388604 2.82557408,66.5098617 C2.89054218,50.7365916 2.96115969,36.2399703 3.04213442,22.1903157 C3.05249166,20.3652015 3.11557663,18.9088349 3.24080501,17.6070443 C3.36979965,16.255901 4.0590265,14.9606287 5.41017476,13.5303351 C5.75196348,13.169037 6.15212934,12.8123948 6.61538017,12.3998817 C6.85830439,12.1829166 7.10687801,11.9612956 7.36015946,11.7285004 L8.94481627,10.2684091 L9.94193544,10.2684091 L12.6979013,10.2684091 L15.0621753,10.2674779" id="Fill-1" fill="#DEDEE6" mask="url(#mask-2)"></path>
                </g>
                <path d="M5.01162402,44.7274452 C5.01162402,37.2396698 5.02973422,29.7528231 5.00009934,22.2650477 C4.99186743,20.1901668 5.49483709,18.3586246 6.6547131,16.7639197 C7.2260076,15.9772482 7.82199782,15.2119385 8.43774463,14.4698481 C8.8937924,13.9218715 9.46179414,13.8633588 9.82399814,14.2413697 C10.0882424,14.5181444 10.073425,15.3410381 9.65277443,15.8379321 C8.88638368,16.7453443 8.16279886,17.7149842 7.52070994,18.7375643 C6.9354212,19.6691246 6.73044666,20.7595052 6.73126985,21.9316179 C6.74773367,37.1477211 6.74279452,48.8186943 6.74197133,64.0347976 C6.74197133,64.3840166 6.75349601,64.7341643 6.7271539,65.080597 C6.68928711,65.5802774 6.37482818,65.9610747 5.96981825,65.9963681 C5.53105749,66.0344478 5.22400727,65.7706761 5.11123012,65.3183631 C5.02314869,64.9654291 5.01573997,64.5790591 5.01573997,64.2084783 C5.01080083,56.5330906 5.01162402,52.4028329 5.01162402,44.7274452" id="Fill-4" fill="#DEDEE6"></path>
                <path d="M18.0158338,69.8128554 C17.228826,69.6992565 16.4437214,69.5728159 15.6548103,69.4740342 C12.5048756,69.0808831 10.7624193,69.0789075 7.61438796,69.4779855 C6.83308997,69.5767672 6.06416332,69.7901356 5.29238174,69.9669548 C4.78801154,70.0815416 4.33122343,69.8978077 4.11424908,69.4206921 C3.89727473,68.9435766 3.9829225,68.4358387 4.42638762,68.2313606 C5.1391674,67.9014298 5.90048091,67.5774259 6.66560099,67.4974127 C10.1724014,66.7575379 11.8853568,66.9531257 15.2046837,67.3739356 C16.2353119,67.5043274 17.2630851,67.6742319 18.2803903,67.8876004 C18.764776,67.9893455 19.0550268,68.5326448 18.9912668,68.9890162 C18.9237002,69.4671195 18.4868966,69.8533559 18.0158338,69.8128554" id="Fill-6" fill="#DEDEE6"></path>
            </g>
        </g>
    </g>
</svg>