<?xml version="1.0" encoding="UTF-8"?>
<svg width="23px" height="71px" viewBox="0 0 23 71" version="1.1" xmlns="http://www.w3.org/2000/svg" xmlns:xlink="http://www.w3.org/1999/xlink">
    <title>A14A5C31-4FCD-4FE9-9DBA-C1ADCC6C977B</title>
    <defs>
        <polygon id="path-1" points="6.27392341e-16 0 23 0 23 71 6.27392341e-16 71"></polygon>
    </defs>
    <g id="Impact-Counter" stroke="none" stroke-width="1" fill="none" fill-rule="evenodd">
        <g id="3R-Object" transform="translate(-1040.000000, -546.000000)">
            <g id="Group-8" transform="translate(1040.000000, 546.000000)">
                <g id="Group-3">
                    <mask id="mask-2" fill="white">
                        <use xlink:href="#path-1"></use>
                    </mask>
                    <g id="Clip-2"></g>
                    <path d="M12.168822,7.17183178 C10.4083669,7.17183178 8.64791171,7.17183178 6.88835888,7.17183178 C5.87864626,7.17093835 5.81818983,7.11107853 5.81458049,6.12473166 C5.81006881,5.16965483 5.83623652,4.21457801 5.81097115,3.26039462 C5.79743613,2.75828688 5.99685211,2.47596295 6.48321056,2.38304622 C6.86580051,2.31067838 7.24748813,2.21776164 7.63458975,2.18113101 C8.84191369,2.06498509 10.0483353,2.01316614 11.2547569,2.01316614 C12.6254034,2.01316614 13.9951476,2.08106683 15.3648918,2.19899961 C17.1578311,2.35356302 17.1569287,2.36339076 17.1569287,4.12255471 C17.1569287,4.63091646 17.1497101,6.15689514 17.1569287,6.60897079 C17.1650497,7.1754055 17.0531602,7.13788144 16.6200395,7.15217632 C16.3457298,7.16111062 16.1020994,7.17093835 15.6897324,7.17093835 C14.5157948,7.17183178 13.3427596,7.17183178 12.168822,7.17183178 M11.0941413,-0.0006254011 C9.12795382,-0.0006254011 7.16537566,0.153938014 5.21091852,0.556875008 C4.27249034,0.749855919 4.01261792,0.981254326 4.00900858,1.94258516 C3.99998524,3.85363223 4.02164127,5.76467931 3.99727823,7.67483295 C3.98825488,8.34490556 4.14977281,8.838079 4.87164064,9.01944532 C4.97811614,9.04714165 5.06113094,9.16954158 5.20821151,9.29194151 C4.48724602,9.95665354 3.80598326,10.5168342 3.20593062,11.1529565 C1.73873426,12.7075249 0.618034462,14.471156 0.410497461,16.6404044 C0.263416891,18.1779977 0.217397817,19.7298859 0.208374469,21.2764134 C0.127164339,35.4515761 0.0594892298,49.6267387 0.000837468795,63.8019014 C-0.00728354427,65.687039 0.0450518733,67.5712831 0.0973872908,69.4555273 C0.11994566,70.2640816 0.47817257,70.725985 1.27493418,70.8671469 C1.78655801,70.9573834 6.50396426,71.000268 11.287241,71.000268 C16.27625,71.000268 21.3374458,70.9538097 21.7660548,70.8671469 C22.4852156,70.7215178 22.914727,70.1658043 22.9751834,69.4367653 C22.9986441,69.1535479 23.0013511,68.8694371 22.9995465,68.5853264 C22.9002896,51.5958588 22.7992281,34.6072846 22.7008737,17.617817 C22.6945573,16.492095 22.4545363,15.424446 22.0006619,14.3925342 C21.2237516,12.6271162 20.0155253,11.2003083 18.5519383,9.96290755 C18.3227453,9.76903321 18.1079896,9.55997055 17.8138285,9.29104808 C18.0709939,9.12129635 18.2216838,8.98549497 18.3994437,8.91134027 C18.8668531,8.71389221 19.0662691,8.37885591 19.0635621,7.88121532 C19.0554411,5.8415143 19.0689761,3.80181329 19.0563435,1.76121884 C19.0518318,1.12062943 18.7396239,0.742708478 18.1097943,0.624775699 C17.2399435,0.463064843 16.3664835,0.296886836 15.486707,0.217371554 C14.020413,0.0851438926 12.5559237,-0.0006254011 11.0941413,-0.0006254011 M14.4345847,9.85122878 L15.9784795,11.2610615 L16.2338402,11.4978205 C16.4350609,11.6845474 16.6110162,11.8471517 16.7941901,12.0017151 C18.0818219,13.0890196 18.9724263,14.221889 19.5192412,15.4637569 C19.834156,16.1793945 19.9893576,16.8896714 19.9938693,17.6330053 L20.1571919,45.4499528 L20.2907374,68.2529703 C18.6466835,68.289601 15.4172273,68.3199776 11.287241,68.3199776 C7.25109746,68.3199776 4.30948607,68.2913878 2.77280993,68.2556506 C2.73400953,66.7805975 2.70152548,65.2805283 2.70784182,63.813516 C2.77010292,48.6797028 2.83777803,34.7707823 2.91537882,21.2907083 C2.92530451,19.5395852 2.98576094,18.1422605 3.10577146,16.8932452 C3.22939133,15.596878 3.88990039,14.3541167 5.18475081,12.981808 C5.51229833,12.6351571 5.89579062,12.2929734 6.33973933,11.8971838 C6.57254171,11.6890146 6.81075809,11.4763782 7.05348615,11.2530207 L8.57211559,9.85212221 L9.52768813,9.85212221 L12.168822,9.85212221 L14.4345847,9.85122878" id="Fill-1" fill="#9AB7DB" mask="url(#mask-2)"></path>
                </g>
                <path d="M5.01162402,42.5456203 C5.01162402,35.3458363 5.02973422,28.1469453 5.00009934,20.9471613 C4.99186743,18.9520834 5.49483709,17.1909852 6.6547131,15.6576151 C7.2260076,14.9012002 7.82199782,14.1653255 8.43774463,13.451777 C8.8937924,12.9248765 9.46179414,12.8686142 9.82399814,13.2320863 C10.0882424,13.4982157 10.073425,14.2894597 9.65277443,14.7672424 C8.88638368,15.6397541 8.16279886,16.5721002 7.52070994,17.5553503 C6.9354212,18.4510813 6.73044666,19.4995242 6.73126985,20.6265556 C6.74773367,35.2574242 6.74279452,46.4795138 6.74197133,61.1103823 C6.74197133,61.4461698 6.75349601,61.7828503 6.7271539,62.1159587 C6.68928711,62.5964206 6.37482818,62.9625718 5.96981825,62.9965078 C5.53105749,63.0331229 5.22400727,62.7794962 5.11123012,62.34458 C5.02314869,62.0052202 5.01573997,61.6337107 5.01573997,61.277383 C5.01080083,53.8972025 5.01162402,49.9258009 5.01162402,42.5456203" id="Fill-4" fill="#9AB7DB"></path>
                <path d="M17.0814449,66.8128554 C16.3469043,66.6992565 15.61414,66.5728159 14.877823,66.4740342 C11.9378839,66.0808831 10.3115914,66.0789075 7.37342876,66.4779855 C6.6442173,66.5767672 5.92655243,66.7901356 5.20622296,66.9669548 C4.73547744,67.0815416 4.30914187,66.8978077 4.10663247,66.4206921 C3.90412308,65.9435766 3.984061,65.4358387 4.39796178,65.2313606 C5.0632229,64.9014298 5.77378218,64.5774259 6.48789426,64.4974127 C9.76090794,63.7575379 11.3596663,63.9531257 14.4577048,64.3739356 C15.4196244,64.5043274 16.3788794,64.6742319 17.3283643,64.8876004 C17.7804576,64.9893455 18.0513583,65.5326448 17.991849,65.9890162 C17.9287869,66.4671195 17.5211035,66.8533559 17.0814449,66.8128554" id="Fill-6" fill="#9AB7DB"></path>
            </g>
        </g>
    </g>
</svg>