<?xml version="1.0" encoding="UTF-8"?>
<svg width="50px" height="61px" viewBox="0 0 50 61" version="1.1" xmlns="http://www.w3.org/2000/svg" xmlns:xlink="http://www.w3.org/1999/xlink">
    <title>B7615E5D-1FF5-4525-B817-74F896060253</title>
    <defs>
        <polygon id="path-1" points="0 0 49.279 0 49.279 60.5898 0 60.5898"></polygon>
    </defs>
    <g id="Impact-Counter-6R" stroke="none" stroke-width="1" fill="none" fill-rule="evenodd">
        <g id="6R" transform="translate(-1027.000000, -553.000000)">
            <g id="Group-3" transform="translate(1027.000000, 553.000000)">
                <mask id="mask-2" fill="white">
                    <use xlink:href="#path-1"></use>
                </mask>
                <g id="Clip-2"></g>
                <path d="M47.2765,57.415 C47.2975,57.728 47.1945,58.023 46.9885,58.244 C46.7795,58.467 46.4865,58.59 46.1655,58.59 L31.3645,58.59 C30.6645,58.59 30.0905,58.03 30.0855,57.338 L30.0565,54.93 L47.1175,54.93 L47.2765,57.414 L47.2765,57.415 Z M19.5235,26.465 L19.2445,52.93 L2.2885,52.93 L4.3315,20.83 L6.8255,20.83 C9.4995,20.83 11.6745,18.654 11.6705,16.078 L12.5815,6.84 L27.0855,6.84 L28.2645,6.84 L37.5885,6.84 L38.4945,15.98 C38.4945,18.654 40.6705,20.83 43.3435,20.83 L44.9425,20.83 L46.9875,52.93 L30.0325,52.93 L29.7425,26.465 L19.5235,26.465 Z M19.1945,57.334 C19.1835,58.026 18.6095,58.59 17.9155,58.59 L3.1145,58.59 C2.7905,58.59 2.4975,58.468 2.2905,58.246 C2.0845,58.027 1.9825,57.731 2.0035,57.414 L2.1625,54.93 L19.2225,54.93 L19.1945,57.334 Z M6.1145,6.84 L10.5725,6.84 L9.6745,15.98 C9.6745,17.552 8.3965,18.83 6.8255,18.83 L5.3515,18.83 L6.1145,6.84 Z M6.4935,2 L42.7735,2 C43.3265,2 43.7635,2.358 43.7855,2.675 L43.9225,4.84 L37.3905,4.84 L28.2645,4.84 L27.0855,4.84 L12.7785,4.84 L5.3505,4.84 L5.4915,2.677 C5.5125,2.356 5.9295,2 6.4935,2 L6.4935,2 Z M44.8145,18.83 L43.3435,18.83 C41.7725,18.83 40.4945,17.552 40.4895,15.883 L39.5975,6.84 L44.0505,6.84 L44.8145,18.83 Z M48.9925,52.93 L48.9905,52.93 L46.9465,20.83 L46.9515,20.83 L45.9325,4.84 L45.9275,4.84 L45.7815,2.543 C45.6835,1.117 44.3635,0 42.7735,0 L6.4935,0 C4.9075,0 3.5905,1.117 3.4955,2.546 L0.1575,54.93 L0.1585,54.93 L0.0065,57.284 C-0.0495,58.159 0.2425,58.986 0.8305,59.614 C1.4205,60.243 2.2315,60.59 3.1145,60.59 L17.9155,60.59 C19.6955,60.59 21.1665,59.144 21.1945,57.361 L21.2465,52.93 L21.2435,52.93 L21.5025,28.465 L27.7635,28.465 L28.0535,54.93 L28.0565,54.93 L28.0855,57.357 C28.0995,59.14 29.5705,60.59 31.3645,60.59 L46.1655,60.59 C47.0465,60.59 47.8565,60.242 48.4475,59.611 C49.0365,58.983 49.3295,58.157 49.2725,57.285 L48.9925,52.93 Z" id="Fill-1" fill="#9FB6D7" mask="url(#mask-2)"></path>
            </g>
        </g>
    </g>
</svg>