<?xml version="1.0" encoding="UTF-8"?>
<svg width="42px" height="64px" viewBox="0 0 42 64" version="1.1" xmlns="http://www.w3.org/2000/svg" xmlns:xlink="http://www.w3.org/1999/xlink">
    <title>4B961AA9-54C5-4C8D-A06C-643C9941AAE1</title>
    <defs>
        <polygon id="path-1" points="0 0 42 0 42 64 0 64"></polygon>
    </defs>
    <g id="Impact-Counter" stroke="none" stroke-width="1" fill="none" fill-rule="evenodd">
        <g id="3R-Object" transform="translate(-1251.000000, -550.000000)">
            <g id="Group-8" transform="translate(1251.000000, 550.000000)">
                <g id="Group-3">
                    <mask id="mask-2" fill="white">
                        <use xlink:href="#path-1"></use>
                    </mask>
                    <g id="Clip-2"></g>
                    <path d="M36.914538,0 C35.9488156,0 34.9830931,0.00493912274 34.0181822,0.0156405553 C32.0315531,0.0370434205 31.9398501,0.111953449 31.9284886,2.08677936 C31.9057657,6.18378167 31.9211848,10.2816072 31.9195618,14.3786095 C31.9187502,16.1542241 31.9293002,17.9298387 31.9017081,19.7046302 C31.8911582,20.4578464 31.8765506,21.2415205 30.8621363,21.4119203 C30.6649341,21.4456709 30.4847741,21.4629579 30.3192217,21.4629579 C29.5296016,21.4629579 29.0710863,21.067828 28.7294315,20.0931745 C28.5492716,19.5795057 28.3950806,19.0510196 28.2936391,18.515948 C28.1256521,17.631845 27.6168219,17.2424775 26.7476717,17.2424775 L26.7428025,17.2424775 C24.4697028,17.2465934 22.1974147,17.249063 19.924315,17.249063 C18.3523786,17.249063 16.7796306,17.2482398 15.2076941,17.2457702 L15.204448,17.2457702 C14.315821,17.2457702 13.8686672,17.6993463 13.6868841,18.5595769 C13.5456776,19.2238889 13.3127681,19.8692676 13.1001468,20.5162927 C12.8493836,21.2760944 12.3275689,21.4333231 11.7481354,21.4333231 C11.532268,21.4333231 11.3090969,21.4110971 11.0883603,21.3905174 C10.3068555,21.3180769 10.1502299,20.7080953 10.1128995,20.0627166 C10.0771921,19.4502653 10.0796267,18.8345214 10.0796267,18.2204238 C10.0763806,12.8252554 10.0901766,7.43008697 10.0682653,2.03574176 C10.0601499,0.152289618 9.94004328,0.046921666 8.13032809,0.0172869296 C7.40644201,0.00576230986 6.68336747,0.00246956137 5.95948139,0.00246956137 C4.92883642,0.00246956137 3.89900298,0.00905505836 2.868358,0.00905505836 L2.84482359,0.00905505836 C2.63788306,0.00905505836 2.4455501,0.00905505836 2.26782471,0.00905505836 C-0.160277466,0.00905505836 0.00284036017,0.104544765 0.00202882869,2.91243604 C-5.86059559e-06,22.3059015 -5.86059559e-06,41.7001901 0.00121729721,61.0944787 C0.00121729721,61.5727504 0.0288093674,62.0510222 0.00933261197,62.5276475 C-0.0328670248,63.5656865 0.491382309,63.9888047 1.43600495,63.9888047 C1.45629323,63.9888047 1.47576999,63.9888047 1.49605828,63.9879815 C1.54961935,63.9871583 1.60318043,63.9871583 1.65674151,63.9871583 C1.93996599,63.9871583 2.22400201,63.9986829 2.50803803,63.9986829 C8.99379758,63.9986829 15.4771225,64.0003293 21.9628821,64.0003293 C27.8221394,64.0003293 33.6830197,63.9995061 39.5422769,63.9953902 C41.9801175,63.994567 41.993102,63.9756337 41.994725,61.4517419 C42.0001517,51.6862731 41.9963481,41.9208043 41.9971596,32.1561586 C41.9971596,26.2143939 41.9971596,20.2734525 41.9971596,14.332511 C41.9971596,10.30301 42.0060865,6.27433225 41.993102,2.24565447 C41.9857982,0.0543303501 41.9614523,0.0337506721 39.8871778,0.0139941811 C38.8962979,0.00493912274 37.9054179,0 36.914538,0 M36.914538,2.46956137 C37.7958612,2.46956137 38.6771844,2.47367731 39.5593191,2.48108599 C39.5674344,5.24946429 39.5655135,8.01866577 39.5641883,10.7870441 L39.5625652,14.332511 L39.5625652,32.1561586 L39.5625652,40.3789748 C39.5633767,47.4024073 39.5641883,54.426663 39.5601306,61.4500956 L39.5601306,61.5258288 L39.5406539,61.5258288 C33.6822081,61.5299447 27.8213278,61.5307679 21.9628821,61.5307679 L10.6931445,61.5299447 L2.50803803,61.5291215 C2.48531514,61.5291215 2.46421533,61.5291215 2.44149245,61.5291215 C2.43905785,61.3842406 2.43581172,61.2393597 2.43581172,61.0944787 L2.43581172,53.1688331 C2.43500019,36.4169751 2.43418866,19.664294 2.43662326,2.91243604 L2.43581172,2.47861643 L2.53157244,2.47861643 L2.86916953,2.47861643 C3.38286896,2.47861643 3.89575685,2.47697005 4.41026781,2.47532368 C4.92640182,2.47367731 5.44253584,2.47203093 5.95948139,2.47203093 C6.51781505,2.47203093 7.07696023,2.47367731 7.63529389,2.4802628 C7.64827839,5.98868632 7.64665533,9.49793303 7.64503227,13.0063565 C7.64422074,14.7449278 7.64340921,16.483499 7.64503227,18.221247 L7.64503227,18.3463714 C7.64503227,18.9456516 7.64503227,19.5655115 7.68236272,20.2075975 C7.82600379,22.6878603 9.42066314,23.7151978 10.8903466,23.8526701 C11.1427329,23.8757193 11.428392,23.9028845 11.7481354,23.9028845 C14.277679,23.9028845 15.1508869,22.0819946 15.4089539,21.2999668 L15.5136415,20.9846861 C15.6434865,20.5977882 15.784693,20.1763164 15.9104803,19.7161548 C17.2486958,19.7178012 18.5860996,19.7186244 19.924315,19.7186244 C21.9677513,19.7186244 24.010376,19.716978 26.0667968,19.7136852 C26.1658036,20.1005832 26.2883449,20.5006521 26.4352321,20.9204776 C27.3076284,23.4097954 29.0288867,23.9325192 30.3192217,23.9325192 C30.6170538,23.9325192 30.9246242,23.9053541 31.2589752,23.8485541 C32.6385787,23.6172386 34.2916683,22.7166719 34.3363025,19.74332 C34.3574023,18.3611888 34.3557793,16.9658866 34.3541562,15.6175061 L34.3541562,14.3802559 C34.3541562,13.0845593 34.3533447,11.7880396 34.3525331,10.4923431 C34.3500985,7.86555296 34.3476639,5.15315139 34.36146,2.48108599 C35.211945,2.47367731 36.0632415,2.46956137 36.914538,2.46956137" id="Fill-1" fill="#9AB7DB" mask="url(#mask-2)"></path>
                </g>
                <path d="M28,58.8241164 L28,59.3297297 C28,59.6997921 28.2744088,60 28.6126689,60 L36.167652,59.9692308 C36.6282939,59.9675676 37,59.5592516 37,59.0561331 L37,28.5081081 C37,28.227027 36.791723,28 36.5355574,28 L35.7777027,28 C35.520777,28 35.3125,28.227027 35.3125,28.5081081 L35.3125,58.1538462 L28.6126689,58.1538462 C28.2744088,58.1538462 28,58.4540541 28,58.8241164" id="Fill-4" fill="#9AB7DB"></path>
                <path d="M16,57.8355294 L16,58.3362353 C16,58.7027059 15.713078,59 15.3593931,59 L5.87030347,58.9695294 C5.38865607,58.9678824 5,58.5635294 5,58.0652941 L5,38.5031765 C5,38.2256471 5.21777457,38 5.48562139,38 L6.27803468,38 C6.5466763,38 6.76445087,38.2256471 6.76445087,38.5031765 L6.76445087,57.1717647 L15.3593931,57.1717647 C15.713078,57.1717647 16,57.4690588 16,57.8355294" id="Fill-6" fill="#9AB7DB"></path>
            </g>
        </g>
    </g>
</svg>