<?xml version="1.0" encoding="UTF-8"?>
<svg width="45px" height="68px" viewBox="0 0 45 68" version="1.1" xmlns="http://www.w3.org/2000/svg" xmlns:xlink="http://www.w3.org/1999/xlink">
    <title>BDE87EF3-CFD4-400E-8FCD-0CE769A9F99D</title>
    <defs>
        <polygon id="path-1" points="0 0 45 0 45 68 0 68"></polygon>
    </defs>
    <g id="Impact-Counter" stroke="none" stroke-width="1" fill="none" fill-rule="evenodd">
        <g id="3R-Object" transform="translate(-699.000000, -547.000000)">
            <g id="Group-8-Copy-3" transform="translate(699.000000, 547.000000)">
                <g id="Group-3">
                    <mask id="mask-2" fill="white">
                        <use xlink:href="#path-1"></use>
                    </mask>
                    <g id="Clip-2"></g>
                    <path d="M39.5512907,0 C38.5165881,0 37.4818855,0.00524781791 36.4480523,0.0166180901 C34.3195212,0.0393586343 34.2212679,0.118950539 34.2090949,2.21720307 C34.184749,6.57026802 34.2012695,10.9242076 34.1995305,15.2772726 C34.198661,17.1638631 34.2099644,19.0504537 34.1804015,20.9361696 C34.169098,21.7364618 34.1534471,22.5691156 33.0665746,22.7501653 C32.8552865,22.7860254 32.662258,22.8043927 32.4848804,22.8043927 C31.6388588,22.8043927 31.1475925,22.3845673 30.7815338,21.3489979 C30.5885052,20.8032248 30.4233006,20.2417083 30.3146134,19.6731947 C30.1346273,18.7338353 29.589452,18.3201323 28.6582197,18.3201323 L28.6530027,18.3201323 C26.2175387,18.3245055 23.7829443,18.3271294 21.3474804,18.3271294 C19.6632627,18.3271294 17.9781756,18.3262548 16.293958,18.3236309 L16.29048,18.3236309 C15.3383796,18.3236309 14.8592862,18.8055555 14.6645187,19.7195504 C14.513226,20.4253819 14.2636801,21.1110968 14.0358716,21.798561 C13.7671967,22.6058503 13.2081095,22.7729058 12.5872879,22.7729058 C12.3560015,22.7729058 12.1168895,22.7492906 11.8803861,22.7274247 C11.0430595,22.6504567 10.8752464,22.0023512 10.8352494,21.3166364 C10.7969915,20.6659069 10.7996,20.011679 10.7996,19.3592003 C10.796122,13.6268338 10.8109035,7.89446741 10.7874271,2.16297562 C10.7787321,0.161807719 10.6500464,0.0498542702 8.71106581,0.0183673627 C7.93547359,0.00612245423 7.16075086,0.00262390896 6.38515864,0.00262390896 C5.28089616,0.00262390896 4.17750319,0.0096209995 3.07324072,0.0096209995 L3.04802527,0.0096209995 C2.82630328,0.0096209995 2.62023225,0.0096209995 2.42981219,0.0096209995 C-0.171725857,0.0096209995 0.00304324303,0.111078812 0.00217374502,3.09446329 C-6.27920963e-06,23.7000203 -6.27920963e-06,44.306452 0.00130424701,64.9128837 C0.00130424701,65.4210474 0.0308671793,65.9292111 0.00999922711,66.4356255 C-0.0352146694,67.5385419 0.526481045,67.9881049 1.53857673,67.9881049 C1.56031418,67.9881049 1.58118213,67.9881049 1.60291958,67.9872303 C1.66030645,67.9863557 1.71769332,67.9863557 1.77508019,67.9863557 C2.07853499,67.9863557 2.3828593,67.9986006 2.6871836,67.9986006 C9.63621169,67.9986006 16.5826313,68.0003499 23.5316594,68.0003499 C29.809435,68.0003499 36.0889496,67.9994752 42.3667253,67.995102 C44.9786973,67.9942274 44.9926093,67.9741108 44.9943483,65.2924758 C45.0001626,54.9166652 44.9960873,44.5408545 44.9969568,34.1659185 C44.9969568,27.8527936 44.9969568,21.5405433 44.9969568,15.2282929 C44.9969568,10.9469482 45.0065212,6.66647802 44.9926093,2.38600788 C44.9847838,0.057725997 44.9586988,0.0358600891 42.7362619,0.0148688174 C41.6746049,0.00524781791 40.6129478,0 39.5512907,0 M39.5512907,2.62390896 C40.4955656,2.62390896 41.4398404,2.62828214 42.3849847,2.63615386 C42.3936797,5.5775558 42.3916216,8.51983238 42.3902017,11.4612343 L42.3884627,15.2282929 L42.3884627,34.1659185 L42.3884627,42.9026607 C42.3893322,50.3650578 42.3902017,57.8283295 42.3858542,65.2907265 L42.3858542,65.3711931 L42.3649863,65.3711931 C36.0880801,65.3755663 29.8085655,65.3764409 23.5316594,65.3764409 L11.4569405,65.3755663 L2.6871836,65.3746916 C2.66283766,65.3746916 2.64023071,65.3746916 2.61588476,65.3746916 C2.61327627,65.2207556 2.60979828,65.0668196 2.60979828,64.9128837 L2.60979828,56.4918852 C2.60892878,38.6930361 2.60805928,20.8933124 2.61066777,3.09446329 L2.60979828,2.63352996 L2.71239904,2.63352996 L3.07411021,2.63352996 C3.62450245,2.63352996 4.1740252,2.63178068 4.72528693,2.63003141 C5.27828767,2.62828214 5.8312884,2.62653286 6.38515864,2.62653286 C6.98337327,2.62653286 7.58245739,2.62828214 8.18067203,2.63527923 C8.19458399,6.36297922 8.192845,10.0915538 8.191106,13.8192538 C8.1902365,15.6664857 8.18936701,17.5137176 8.191106,19.3600749 L8.191106,19.4930196 C8.191106,20.1297549 8.191106,20.788356 8.23110291,21.4705723 C8.38500406,24.1058516 10.0935676,25.1973977 11.6682285,25.343462 C11.9386424,25.3679518 12.2447057,25.3968148 12.5872879,25.3968148 C15.2975132,25.3968148 16.2330931,23.4621192 16.5095935,22.6312147 L16.6217587,22.296229 C16.7608784,21.88515 16.912171,21.4373362 17.0469432,20.9484145 C18.4807454,20.9501637 19.9136782,20.9510384 21.3474804,20.9510384 C23.5368764,20.9510384 25.7254029,20.9492891 27.9287108,20.9457906 C28.0347896,21.3568696 28.1660838,21.7819429 28.3234629,22.2280074 C29.2581733,24.8729076 31.1023786,25.4283017 32.4848804,25.4283017 C32.8039862,25.4283017 33.1335259,25.3994387 33.4917591,25.3390888 C34.9699057,25.093316 36.7410732,24.1364638 36.7888955,20.9772775 C36.8115025,19.5087631 36.8097635,18.0262545 36.8080245,16.5936002 L36.8080245,15.2790218 C36.8080245,13.9023443 36.807155,12.5247921 36.8062855,11.1481145 C36.803677,8.35715002 36.8010685,5.47522335 36.81585,2.63615386 C37.7270839,2.62828214 38.6391873,2.62390896 39.5512907,2.62390896" id="Fill-1" fill="#DEDEE6" mask="url(#mask-2)"></path>
                </g>
                <path d="M29,62.7506237 L29,63.2878378 C29,63.6810291 29.3048986,64 29.6807432,64 L38.0751689,63.9673077 C38.5869932,63.9655405 39,63.5317048 39,62.9971414 L39,30.5398649 C39,30.2412162 38.7685811,30 38.4839527,30 L37.6418919,30 C37.3564189,30 37.125,30.2412162 37.125,30.5398649 L37.125,62.0384615 L29.6807432,62.0384615 C29.3048986,62.0384615 29,62.3574324 29,62.7506237" id="Fill-4" fill="#DEDEE6"></path>
                <path d="M17,61.7800784 L17,62.3046275 C17,62.688549 16.6869942,63 16.3011561,63 L5.94942197,62.9680784 C5.42398844,62.9663529 5,62.5427451 5,62.0207843 L5,41.5271373 C5,41.2363922 5.23757225,41 5.52976879,41 L6.39421965,41 C6.68728324,41 6.92485549,41.2363922 6.92485549,41.5271373 L6.92485549,61.0847059 L16.3011561,61.0847059 C16.6869942,61.0847059 17,61.3961569 17,61.7800784" id="Fill-6" fill="#DEDEE6"></path>
            </g>
        </g>
    </g>
</svg>