<?xml version="1.0" encoding="UTF-8"?>
<svg width="52px" height="58px" viewBox="0 0 52 58" version="1.1" xmlns="http://www.w3.org/2000/svg" xmlns:xlink="http://www.w3.org/1999/xlink">
    <title>B0168E32-9EB8-427F-916C-CB2FC83D33B5</title>
    <defs>
        <polygon id="path-1" points="0 0 52 0 52 58 0 58"></polygon>
    </defs>
    <g id="Impact-Counter-6R" stroke="none" stroke-width="1" fill="none" fill-rule="evenodd">
        <g id="6R-start-Copy-2" transform="translate(-1234.000000, -519.000000)">
            <g id="Group-6" transform="translate(1234.000000, 519.000000)">
                <mask id="mask-2" fill="white">
                    <use xlink:href="#path-1"></use>
                </mask>
                <g id="Clip-2"></g>
                <path d="M14.6990576,55.4811983 L25.3009424,55.4811983 L25.3009424,39.9183622 L14.6990576,39.9183622 L14.6990576,55.4811983 Z M33.6494241,23.849247 C33.3620942,24.2169921 32.8519372,24.7316672 32.4925654,25.0213294 C32.3409424,25.1439111 32.3325654,25.3672449 32.4707853,25.5049394 L37.486911,30.4862895 L37.486911,43.9870666 C37.486911,51.1488594 37.486911,48.2354454 37.478534,55.3972383 L37.478534,55.4811983 L27.8140314,55.4811983 L27.8140314,39.9183622 L27.8140314,38.2895371 C27.8140314,37.7975312 27.4161257,37.3995605 26.9260733,37.3995605 L25.3009424,37.3995605 L14.6990576,37.3995605 L13.0739267,37.3995605 C12.5838743,37.3995605 12.1859686,37.7975312 12.1859686,38.2895371 L12.1859686,39.9183622 L12.1859686,55.4811983 L2.52146597,55.4811983 L2.51308901,55.4728023 L2.51308901,30.5450615 L20.0041885,13.0990014 L25.3059686,18.3607781 C25.4609424,18.5152647 25.7105759,18.501831 25.8496335,18.3322317 C26.137801,17.9779203 26.6228272,17.4968292 26.9830366,17.2096858 C27.1564398,17.0719913 27.1715183,16.8184319 27.0157068,16.6614266 L22.0146597,11.6120688 C21.704712,11.2258526 21.2272251,11 20.7329843,11 L19.2670157,11 C18.7727749,11 18.295288,11.2258526 17.9853403,11.6120688 L0.636649215,29.1009486 C0.22617801,29.6215009 0,30.2595973 0,30.9228818 L0,55.03621 C0,55.5231783 0.0251308901,56.0101467 0.00837696335,56.497115 C-0.0335078534,57.5550117 0.502617801,57.991604 1.48272251,57.991604 L1.70890052,57.991604 C2.00209424,57.991604 2.29528796,58 2.58848168,58 L37.4617801,58 C39.9581152,57.991604 39.991623,57.974812 39.991623,55.4811983 L39.991623,55.4056343 C40,45.4395756 40,45.5571196 40,35.5994569 L40,30.9228818 C40,30.2595973 39.773822,29.6215009 39.3633508,29.1009486 L34.1336126,23.8232194 C33.9953927,23.6846853 33.7700524,23.6947605 33.6494241,23.849247 L33.6494241,23.849247 Z" id="Fill-1" fill="#9FB6D7" mask="url(#mask-2)"></path>
                <path d="M25.4588954,7.00418838 C25.2179753,6.96895177 25,7.1607045 25,7.40408296 L25,8.99218886 C25,9.18639995 25.1417659,9.34865226 25.3343381,9.37897213 C33.6985264,10.6933797 40.3000647,17.2957374 41.6095555,25.6648425 C41.6398754,25.8574146 41.8013082,25.9991805 41.9955193,25.9991805 L43.595917,26 C43.8392955,26 44.0310482,25.7812052 43.9958116,25.5402851 C42.5904444,15.9731353 35.0268647,8.40873612 25.4588954,7.00418838" id="Fill-3" fill="#9FB6D7" mask="url(#mask-2)"></path>
                <path d="M50.880637,25.2180306 C49.4688371,12.0221895 38.9797364,1.53089754 25.785809,0.117960133 C25.3393567,0.0690928881 24.8903774,0.029493569 24.4371863,0.000847253132 C24.2004823,-0.0143184435 24,0.176095303 24,0.412848679 L24.0042118,2.03052299 C24.0050542,2.24537036 24.1735267,2.42061841 24.3883292,2.43409903 C24.85921,2.46358788 25.3267213,2.50487228 25.7866513,2.56132237 C37.6454338,3.9616217 47.0386206,13.3567708 48.4386275,25.2180306 C48.4942234,25.6772142 48.5363415,26.1448232 48.5658242,26.6158024 C48.579302,26.8314923 48.7545135,27 48.9701583,27 L50.5858101,27 C50.8199869,27 51.0120456,26.8011609 50.9994102,26.5669351 C50.975824,26.1119642 50.9345482,25.6620485 50.880637,25.2180306" id="Fill-4" fill="#9FB6D7" mask="url(#mask-2)"></path>
                <path d="M31.2675626,19.7317328 C30.5392187,19.0030808 29.4741135,18.8193943 28.5734731,19.1771912 C28.2671683,19.299939 27.9791375,19.4836255 27.731135,19.7317328 C27.4918344,19.9711346 27.3134467,20.246229 27.191621,20.5404756 C26.8148313,21.4475908 26.993219,22.5314281 27.731135,23.2696562 C28.4734019,24.0122371 29.5654828,24.1872181 30.4756952,23.800693 C30.7628559,23.6788157 31.0334831,23.5038347 31.2675626,23.2696562 C31.5120843,23.0250311 31.6948229,22.7429722 31.8175189,22.4408907 C32.1829961,21.5381282 31.9993873,20.4638671 31.2675626,19.7317328" id="Fill-5" fill="#9FB6D7" mask="url(#mask-2)"></path>
            </g>
        </g>
    </g>
</svg>