<?xml version="1.0" encoding="UTF-8"?>
<svg width="45px" height="60px" viewBox="0 0 45 60" version="1.1" xmlns="http://www.w3.org/2000/svg" xmlns:xlink="http://www.w3.org/1999/xlink">
    <title>6C3F52A2-28B1-491C-B2D7-9C1A80E73BEA</title>
    <defs>
        <polygon id="path-1" points="0 60 45 60 45 0 0 0"></polygon>
    </defs>
    <g id="Impact-Counter-6R" stroke="none" stroke-width="1" fill="none" fill-rule="evenodd">
        <g id="6R-start-Copy-2" transform="translate(-1006.000000, -518.000000)">
            <g id="Group-8" transform="translate(1006.000000, 518.000000)">
                <path d="M45,60 L18,60 L18,26.7513228 C18,26.021164 18.5825589,25.4285714 19.3022927,25.4285714 C20.0211582,25.4285714 20.6045854,26.021164 20.6045854,26.7513228 L20.6045854,57.3544974 L42.3954146,57.3544974 L42.3954146,20.6455026 L26.1610341,20.6455026 C25.4413004,20.6455026 24.8587414,20.0529101 24.8587414,19.3227513 C24.8587414,18.5925926 25.4413004,18 26.1610341,18 L45,18 L45,60 Z" id="Fill-1" fill="#9FB6D7"></path>
                <mask id="mask-2" fill="white">
                    <use xlink:href="#path-1"></use>
                </mask>
                <g id="Clip-4"></g>
                <path d="M29.829348,54.170652 L33.170652,54.170652 L33.170652,50.829348 L29.829348,50.829348 L29.829348,54.170652 Z M28.9256501,49 L28,49.0109761 L28,55.0743499 L28.0109761,56 L34.0743499,56 L35,55.9890239 L35,49.9256501 L34.9890239,49 L28.9256501,49 Z" id="Fill-3" fill="#9FB6D7" mask="url(#mask-2)"></path>
                <path d="M26,9.003747 L26,7.40378698 C26,7.16016073 25.7820651,6.96880339 25.5410963,7.00423994 C15.9732209,8.40929895 8.40928387,15.9732295 7.00422365,25.5410967 C6.96878708,25.7811793 7.1610305,26 7.40465696,26 L8.99310146,26 C9.18711671,26 9.34923904,25.8573679 9.37936013,25.6660106 C10.6940571,17.3012141 17.2958911,10.6993857 25.6660103,9.39000534 C25.8573678,9.35988428 26,9.198648 26,9.003747" id="Fill-5" fill="#9FB6D7" mask="url(#mask-2)"></path>
                <path d="M1.95510231,25.9964892 C2.16210614,25.9964892 2.33051603,25.8333734 2.34367305,25.6272864 C2.3726185,25.1730178 2.41208957,24.7231341 2.46647193,24.2802662 C3.8146282,12.8604113 12.8622742,3.81450411 24.2843242,2.46660694 C24.7272773,2.41223503 25.1763704,2.37277155 25.6307262,2.34383167 C25.8377301,2.33067717 26,2.16229965 26,1.95445864 L26,0.398720459 C26,0.173340125 25.8087846,-0.0116997597 25.5833609,0.000577768251 C25.1456707,0.0233788915 24.7114889,0.062842374 24.2843242,0.115460351 C11.5772716,1.47475808 1.47443241,11.5756557 0.113996259,24.2802662 C0.0666309775,24.7108566 0.0289141788,25.143201 0.00084586358,25.5799302 C-0.0140654289,25.8070645 0.17013289,26.000874 0.398187951,26 L1.95510231,25.9964892 Z" id="Fill-6" fill="#9FB6D7" mask="url(#mask-2)"></path>
                <path d="M18.7314601,19.7322625 C18.0030152,20.4604134 17.8194923,21.5262983 18.1771267,22.4256682 C18.2994753,22.7323571 18.4829983,23.0211715 18.7314601,23.2685923 C18.9705105,23.5075462 19.2462655,23.6862912 19.5399022,23.8085905 C20.4471643,24.1848958 21.5313614,24.0070916 22.2692177,23.2685923 C23.0127209,22.5263299 23.1868324,21.4350443 22.8009637,20.5243853 C22.6786151,20.2365117 22.5035624,19.9665126 22.2692177,19.7322625 C22.0254616,19.487664 21.7421775,19.3051558 21.4410116,19.1828566 C20.5375141,18.8168996 19.4636696,19.0003485 18.7314601,19.7322625" id="Fill-7" fill="#9FB6D7" mask="url(#mask-2)"></path>
            </g>
        </g>
    </g>
</svg>