<?xml version="1.0" encoding="UTF-8"?>
<svg width="46px" height="57px" viewBox="0 0 46 57" version="1.1" xmlns="http://www.w3.org/2000/svg" xmlns:xlink="http://www.w3.org/1999/xlink">
    <title>FA6BB87A-640C-48E5-9623-838E61585ED9</title>
    <defs>
        <polygon id="path-1" points="-7.9094358e-16 0 40 0 40 9 -7.9094358e-16 9"></polygon>
        <polygon id="path-3" points="0 57 46 57 46 0 0 0"></polygon>
    </defs>
    <g id="Impact-Counter-6R" stroke="none" stroke-width="1" fill="none" fill-rule="evenodd">
        <g id="6R-start-Copy-2" transform="translate(-1122.000000, -523.000000)">
            <g id="Group-12" transform="translate(1122.000000, 523.000000)">
                <path d="M36.6346005,14.870852 L37.8714369,13.5902232 C38.0595148,13.3953449 38.0389158,13.0668358 37.8248652,12.9025812 C29.3452369,6.36580626 17.6539539,6.36580626 9.17432556,12.9025812 C8.96117056,13.0668358 8.94057155,13.3953449 9.12864949,13.5902232 L10.3565298,14.8615721 C10.5060965,15.0174748 10.7416417,15.0332506 10.9127031,14.9033317 C18.3937271,9.25928501 28.5974032,9.25928501 36.0775316,14.9126117 C36.2494885,15.0425305 36.4841381,15.0267547 36.6346005,14.870852" id="Fill-1" fill="#9FB6D7"></path>
                <g id="Group-5" transform="translate(4.000000, 0.000000)">
                    <mask id="mask-2" fill="white">
                        <use xlink:href="#path-1"></use>
                    </mask>
                    <g id="Clip-4"></g>
                    <path d="M1.33962916,8.88217475 C1.50081388,9.0341887 1.75728459,9.03925583 1.92826507,8.89653163 C2.30317538,8.583214 2.6825383,8.28171967 3.06902542,7.99542675 C12.9805498,0.580524362 27.0241023,0.580524362 36.9347361,7.99542675 C37.3203327,8.28087515 37.7005862,8.58236948 38.0754965,8.8956871 C38.246477,9.03841131 38.5029477,9.03334418 38.6641324,8.88133023 L39.871682,7.735314 C40.0471151,7.5697877 40.0426625,7.29278452 39.8583241,7.13570344 C39.5003338,6.83083103 39.1325476,6.54031549 38.7603089,6.26415683 C27.8424932,-2.08816488 12.1612683,-2.08816488 1.24256212,6.26415683 C0.872104428,6.54538262 0.506989874,6.83674268 0.146327936,7.13739248 C-0.0415724815,7.29362904 -0.0495871912,7.57147675 0.12851747,7.73869209 L1.33962916,8.88217475 Z" id="Fill-3" fill="#9FB6D7" mask="url(#mask-2)"></path>
                </g>
                <path d="M23.5,18 C22.4700765,18 21.5871608,18.6236952 21.2044189,19.5127001 C21.0739388,19.8154141 21,20.1485734 21,20.5 C21,20.8375087 21.0687196,21.1584899 21.1896312,21.4525052 C21.5645442,22.3597773 22.4570285,23 23.5,23 C24.5499304,23 25.4450244,22.3510786 25.815588,21.434238 C25.9321503,21.1454419 26,20.8314196 26,20.5 C26,20.1546625 25.9295407,19.8249826 25.80254,19.5257481 C25.4232777,18.6289144 24.5351427,18 23.5,18" id="Fill-6" fill="#9FB6D7"></path>
                <mask id="mask-4" fill="white">
                    <use xlink:href="#path-3"></use>
                </mask>
                <g id="Clip-9"></g>
                <path d="M8.82867224,45.170891 L12.170413,45.170891 L12.170413,41.8300235 L8.82867224,41.8300235 L8.82867224,45.170891 Z M7.92577104,40 L7,40.0118892 L7,46.0744709 L7.01097752,47 L13.074229,47 L14,46.9890253 L14,40.9264437 L13.9890225,40 L7.92577104,40 Z" id="Fill-8" fill="#9FB6D7" mask="url(#mask-4)"></path>
                <path d="M33.829348,45.170891 L37.170652,45.170891 L37.170652,41.8300235 L33.829348,41.8300235 L33.829348,45.170891 Z M32.9256501,40 L32,40.0118892 L32,46.0744709 L32.0109761,47 L38.0743499,47 L39,46.9890253 L39,40.9264437 L38.9890239,40 L32.9256501,40 Z" id="Fill-10" fill="#9FB6D7" mask="url(#mask-4)"></path>
                <path d="M43.3458986,48.9978947 L39.7460525,48.9978947 L30.3779594,48.9978947 L15.6220406,48.9978947 L6.25394749,48.9978947 L2.65410136,48.9978947 L2.65410136,39.2988827 C2.65410136,38.5624058 3.25392826,37.9622479 3.98999904,37.9622479 L42.010001,37.9622479 C42.7460717,37.9622479 43.3458986,38.5624058 43.3458986,39.2988827 L43.3458986,48.9978947 Z M31.3139725,54.3444341 L38.8100394,54.3444341 L38.8100394,51.6534606 L31.3139725,51.6534606 L31.3139725,54.3444341 Z M7.18996057,54.3444341 L14.6860275,54.3444341 L14.6860275,51.6534606 L7.18996057,51.6534606 L7.18996057,54.3444341 Z M46,39.2988827 C46,37.4939831 44.7888451,35.9829661 43.1433022,35.4908012 L41.6313492,23.1415345 C41.4119435,21.3507979 39.8407155,20 37.9748822,20 L30.0285027,20 C29.2959708,20 28.7014521,20.5948468 28.7014521,21.327783 C28.7014521,22.0607192 29.2959708,22.6555659 30.0285027,22.6555659 L37.9748822,22.6555659 C38.501279,22.6555659 38.9409751,23.0034451 38.9967112,23.4646283 L40.4467353,35.306682 L5.55414944,35.306682 L7.00328878,23.4646283 C7.05990961,23.0034451 7.49872103,22.6555659 8.0251178,22.6555659 L16.3988076,22.6555659 C17.1313396,22.6555659 17.7258583,22.0607192 17.7258583,21.327783 C17.7258583,20.5948468 17.1313396,20 16.3988076,20 L8.0251178,20 C6.16016925,20 4.58805654,21.3507979 4.36865083,23.1415345 L2.85758246,35.4908012 C1.21115492,35.9829661 0,37.4939831 0,39.2988827 L0,51.6534606 L4.53585922,51.6534606 L4.53585922,55.2818488 C4.53585922,56.2290007 5.30643331,57 6.25394749,57 L15.6220406,57 C16.5695548,57 17.3401289,56.2290007 17.3401289,55.2818488 L17.3401289,51.6534606 L28.6598711,51.6534606 L28.6598711,55.2818488 C28.6598711,56.2290007 29.4304452,57 30.3779594,57 L39.7460525,57 C40.6935667,57 41.4641408,56.2290007 41.4641408,55.2818488 L41.4641408,51.6534606 L46,51.6534606 L46,39.2988827 Z" id="Fill-11" fill="#9FB6D7" mask="url(#mask-4)"></path>
            </g>
        </g>
    </g>
</svg>