<?xml version="1.0" encoding="UTF-8"?>
<svg width="62px" height="60px" viewBox="0 0 62 60" version="1.1" xmlns="http://www.w3.org/2000/svg" xmlns:xlink="http://www.w3.org/1999/xlink">
    <title>46DE3727-8B56-490B-A2C7-C21F14717A0C</title>
    <defs>
        <polygon id="path-1" points="0 0 59.5798 0 59.5798 53.09 0 53.09"></polygon>
        <polygon id="path-3" points="0 0 18.4539988 0 18.4539988 19.502 0 19.502"></polygon>
    </defs>
    <g id="Impact-Counter-6R" stroke="none" stroke-width="1" fill="none" fill-rule="evenodd">
        <g id="6R" transform="translate(-691.000000, -554.000000)">
            <g id="Group-11-Copy" transform="translate(691.000000, 554.000000)">
                <g id="Group-3">
                    <mask id="mask-2" fill="white">
                        <use xlink:href="#path-1"></use>
                    </mask>
                    <g id="Clip-2"></g>
                    <path d="M51.5098,0 L42.9798,0 C40.7198,0 38.7598,1.47 38.1198,3.66 C37.0598,7.3 33.6598,9.84 29.8598,9.84 C26.0698,9.84 22.6698,7.3 21.6098,3.66 C20.9898,1.51 18.9898,0 16.7598,0 L8.0598,0 C3.6098,0 -0.0002,3.62 -0.0002,8.07 L-0.0002,25.15 L8.5798,25.15 L8.5798,49.94 C8.5798,51.68 9.9898,53.09 11.7298,53.09 L32.6188,53.09 C32.1688,52.26 31.7188,51.42 31.2588,50.59 L11.7298,50.59 C11.3698,50.59 11.0798,50.3 11.0798,49.94 L11.0798,22.65 L2.4998,22.65 L2.4998,8.07 C2.4998,5 4.9898,2.5 8.0598,2.5 L16.7598,2.5 C17.8798,2.5 18.8898,3.26 19.2098,4.36 C20.5898,9.06 24.9698,12.34 29.8598,12.34 C34.7698,12.34 39.1498,9.06 40.5198,4.36 C40.8398,3.25 41.8298,2.5 42.9798,2.5 L51.5098,2.5 C54.5798,2.5 57.0798,5 57.0798,8.07 L57.0798,22.65 L48.6598,22.65 L48.6598,30.369 C49.4898,30.369 50.3298,30.369 51.1598,30.359 L51.1598,25.15 L59.5798,25.15 L59.5798,8.07 C59.5798,3.62 55.9598,0 51.5098,0" id="Fill-1" fill="#DEDEE6" mask="url(#mask-2)"></path>
                </g>
                <path d="M40.535,31.7567 C40.056,31.7567 39.774,31.9577 39.54,32.3767 C38.85,33.5967 38.14,34.8067 37.44,36.0267 C36.95,36.8667 36.47,37.7067 35.99,38.5467 C35.77,38.9367 35.84,39.2767 36.22,39.5067 C36.351,39.5947 36.473,39.6337 36.587,39.6337 C36.812,39.6337 37.004,39.4827 37.17,39.2567 C37.25,39.1367 37.32,39.0067 37.39,38.8767 C38.4,37.1267 39.41,35.3767 40.43,33.6267 C40.642,33.2587 41.074,33.0737 41.504,33.0737 C41.926,33.0737 42.347,33.2507 42.56,33.6067 C43.96,35.9967 45.36,38.3767 46.76,40.7667 C46.84,40.9177 46.91,41.0767 47.03,41.3367 C46.69,41.2467 46.48,41.1867 46.27,41.1477 C46.125,41.1157 45.98,41.0917 45.845,41.0917 C45.552,41.0917 45.306,41.2037 45.21,41.5867 C45.07,42.1167 45.42,42.3567 45.9,42.4867 C46.82,42.7367 47.74,42.9767 48.66,43.2367 C49.5,43.4467 50.33,43.6777 51.16,43.9077 C52,44.1267 52.83,44.3567 53.66,44.5867 C53.778,44.6187 53.886,44.6347 53.984,44.6347 C54.351,44.6347 54.579,44.4157 54.69,43.9967 C55.41,41.3467 56.12,38.6967 56.83,36.0467 C56.94,35.6267 56.79,35.2967 56.36,35.1677 C56.282,35.1447 56.209,35.1347 56.141,35.1347 C55.838,35.1347 55.622,35.3407 55.5,35.6677 C55.43,35.8767 55.36,36.0767 55.25,36.4177 C55.07,36.1477 54.96,35.9867 54.86,35.8167 C54.19,34.6577 53.51,33.5067 52.85,32.3267 C52.62,31.9277 52.32,31.7567 51.85,31.7567 L51.16,31.7567 C50.33,31.7667 49.49,31.7667 48.66,31.7667 C45.96,31.7667 43.27,31.7667 40.57,31.7567 C40.558,31.7567 40.546,31.7567 40.535,31.7567 L40.535,31.7567 Z M51.36,33.7567 C51.747,34.4397 52.139,35.1147 52.531,35.7887 L53.136,36.8317 C53.237,37.0027 53.344,37.1657 53.504,37.4027 L53.587,37.5277 L54.14,38.3567 C53.784,39.6857 53.426,41.0157 53.065,42.3477 C52.602,42.2207 52.138,42.0957 51.674,41.9747 C50.86,41.7487 50.046,41.5237 49.223,41.3167 L48.846,40.4997 L48.777,40.3497 C48.677,40.1307 48.604,39.9747 48.525,39.8257 L48.506,39.7907 L48.486,39.7567 L46.354,36.1217 L44.972,33.7657 C46.2,33.7667 47.429,33.7667 48.66,33.7667 C49.498,33.7667 50.346,33.7667 51.16,33.7567 L51.36,33.7567 Z" id="Fill-4" fill="#DEDEE6"></path>
                <g id="Group-8" transform="translate(43.204001, 39.715500)">
                    <mask id="mask-4" fill="white">
                        <use xlink:href="#path-3"></use>
                    </mask>
                    <g id="Clip-7"></g>
                    <path d="M14.4784988,0 C14.3714988,0 14.2574988,0.027 14.1354988,0.082 C13.7064988,0.272 13.6864988,0.632 13.8364988,1.022 C13.8854988,1.152 13.9564988,1.282 14.0264988,1.412 C14.9364988,3.222 15.8454988,5.022 16.7564988,6.832 C17.1194988,7.568 16.4604988,8.623 15.6414988,8.623 C15.6264988,8.623 15.6114988,8.622 15.5954988,8.622 C13.0464988,8.502 10.5064988,8.372 7.95649875,8.242 C7.74649875,8.232 7.52649875,8.222 7.31649875,8.212 C7.14549875,8.202 6.97649875,8.172 6.68649875,8.132 C6.94649875,7.892 7.10549875,7.752 7.26649875,7.592 C7.59549875,7.272 7.86549875,6.892 7.47649875,6.472 C7.31949875,6.298 7.16049875,6.227 6.99949875,6.227 C6.78049875,6.227 6.55949875,6.361 6.34549875,6.552 C6.04649875,6.822 5.75649875,7.082 5.45649875,7.342 C4.02649875,8.622 2.60549875,9.892 1.17649875,11.152 C0.895498751,11.402 0.615498751,11.652 0.336498751,11.902 C-0.0945012488,12.282 -0.104501249,12.672 0.266498751,13.082 C0.436498751,13.272 0.605498751,13.462 0.776498751,13.652 C2.42649875,15.512 4.07549875,17.372 5.73649875,19.222 C5.89749875,19.405 6.08349875,19.502 6.27349875,19.502 C6.42549875,19.502 6.57949875,19.44 6.72649875,19.312 C7.06649875,19.022 7.04649875,18.662 6.78549875,18.322 C6.65549875,18.142 6.51649875,17.982 6.29649875,17.692 C6.62549875,17.702 6.81649875,17.692 7.01649875,17.702 C8.34549875,17.772 9.69649875,17.842 11.0264988,17.932 C11.0624988,17.934 11.0984988,17.935 11.1334988,17.935 C11.5444988,17.935 11.8254988,17.771 12.0554988,17.412 C14.1154988,14.262 16.1764988,11.112 18.2464988,7.982 C18.5164988,7.562 18.5164988,7.202 18.2854988,6.772 C17.6354988,5.532 17.0164988,4.262 16.3854988,3.012 C15.9464988,2.152 15.5164988,1.282 15.0664988,0.422 C14.9264988,0.143 14.7244988,0 14.4784988,0 M5.49849875,9.987 L6.41249875,10.113 L6.60949875,10.141 C6.84949875,10.176 7.02449875,10.198 7.22249875,10.209 L7.49549875,10.222 L7.85449875,10.239 L8.20249875,10.257 C10.1894988,10.358 12.1704988,10.459 14.1554988,10.555 C12.9884988,12.332 11.8224988,14.115 10.6534988,15.903 C9.54149875,15.832 8.42049875,15.773 7.31249875,15.714 L7.11649875,15.704 C6.98449875,15.698 6.85549875,15.697 6.70449875,15.697 L6.68149875,15.697 C6.59049875,15.697 6.48649875,15.697 6.35649875,15.693 L5.23349875,15.658 C4.33349875,14.648 3.43549875,13.635 2.53449875,12.62 C3.52849875,11.745 4.51649875,10.865 5.49849875,9.987" id="Fill-6" fill="#DEDEE6" mask="url(#mask-4)"></path>
                </g>
                <path d="M41.8014,39.5527 C41.7144,39.5527 41.6204,39.5647 41.5204,39.5867 C38.8504,40.2167 36.1804,40.8467 33.5094,41.4867 C33.0804,41.5867 32.8604,41.8867 32.9604,42.3167 C33.0454,42.6827 33.2884,42.8527 33.6244,42.8527 C33.6834,42.8527 33.7454,42.8477 33.8104,42.8367 C34.0204,42.8067 34.2394,42.7667 34.5904,42.7067 C34.4304,42.9867 34.3504,43.1677 34.2394,43.3267 C33.5404,44.4767 32.8504,45.6267 32.1304,46.7567 C31.8804,47.1567 31.8804,47.4967 32.1004,47.9177 C32.6404,48.8967 33.1704,49.8867 33.7004,50.8667 C34.1604,51.6967 34.6104,52.5367 35.0604,53.3667 C35.8704,54.8567 36.6704,56.3467 37.4704,57.8367 C37.7004,58.2667 38.0204,58.4367 38.5094,58.4467 C39.9104,58.4667 41.3104,58.5267 42.7204,58.5567 C43.6904,58.5867 44.6504,58.6067 45.6204,58.6267 C45.6294,58.6277 45.6394,58.6277 45.6494,58.6277 C46.0814,58.6277 46.3304,58.4077 46.3604,57.9767 C46.4004,57.5067 46.1004,57.3167 45.6804,57.2567 C45.5404,57.2367 45.3904,57.2467 45.2504,57.2367 C43.2304,57.1867 41.2104,57.1267 39.1804,57.0667 C38.3404,57.0467 37.7204,55.9177 38.1604,55.2067 C38.5304,54.5967 38.9004,53.9767 39.2704,53.3667 C39.7804,52.5267 40.2804,51.6967 40.7804,50.8667 C41.3404,49.9467 41.8904,49.0267 42.4504,48.1067 C42.5404,47.9567 42.6504,47.8267 42.8204,47.5867 C42.9104,47.9367 42.9604,48.1467 43.0204,48.3567 C43.1324,48.7457 43.2974,49.1047 43.7014,49.1047 C43.7644,49.1047 43.8334,49.0957 43.9104,49.0767 C44.4504,48.9467 44.4894,48.5267 44.3704,48.0367 C43.7504,45.4367 43.1304,42.8267 42.5204,40.2167 C42.4144,39.7637 42.1714,39.5527 41.8014,39.5527 M40.8374,41.8027 C41.1374,43.0817 41.4404,44.3617 41.7444,45.6447 L41.1874,46.4317 C41.1324,46.5097 41.0844,46.5737 41.0424,46.6297 C40.9174,46.7987 40.8224,46.9327 40.7414,47.0667 C40.4594,47.5307 40.1794,47.9947 39.8994,48.4587 C39.6244,48.9147 39.3494,49.3707 39.0664,49.8347 C38.5674,50.6637 38.0694,51.4917 37.5604,52.3297 L37.1454,53.0167 C37.0364,52.8157 36.9274,52.6147 36.8184,52.4137 L36.4724,51.7737 C36.1344,51.1487 35.7944,50.5207 35.4594,49.9157 L35.0474,49.1527 C34.7284,48.5607 34.4074,47.9657 34.0934,47.3937 C34.5954,46.5947 35.0864,45.7867 35.5634,45.0007 L35.9254,44.4047 C36.0364,44.2357 36.1214,44.0787 36.1964,43.9377 C36.2334,43.8687 36.2744,43.7897 36.3264,43.6987 L36.8734,42.7407 C38.1974,42.4267 39.5194,42.1147 40.8374,41.8027" id="Fill-9" fill="#DEDEE6"></path>
            </g>
        </g>
    </g>
</svg>