<?xml version="1.0" encoding="UTF-8"?>
<svg width="60px" height="58px" viewBox="0 0 60 58" version="1.1" xmlns="http://www.w3.org/2000/svg" xmlns:xlink="http://www.w3.org/1999/xlink">
    <title>794C8202-013D-48EC-861F-6A62C00FC907</title>
    <defs>
        <polygon id="path-1" points="0 0 59.5798 0 59.5798 53.0899 0 53.0899"></polygon>
    </defs>
    <g id="Impact-Counter-6R" stroke="none" stroke-width="1" fill="none" fill-rule="evenodd">
        <g id="6R" transform="translate(-1242.000000, -554.000000)">
            <g id="Group-6" transform="translate(1242.000000, 554.000000)">
                <g id="Group-3">
                    <mask id="mask-2" fill="white">
                        <use xlink:href="#path-1"></use>
                    </mask>
                    <g id="Clip-2"></g>
                    <path d="M51.5098,-0.0001 L42.9798,-0.0001 C40.7198,-0.0001 38.7598,1.4699 38.1198,3.6599 C37.0598,7.2999 33.6598,9.8399 29.8598,9.8399 C26.0698,9.8399 22.6698,7.2999 21.6098,3.6599 C20.9898,1.5099 18.9898,-0.0001 16.7598,-0.0001 L8.0598,-0.0001 C3.6098,-0.0001 -0.0002,3.6199 -0.0002,8.0699 L-0.0002,25.1499 L8.5798,25.1499 L8.5798,49.9399 C8.5798,51.6799 9.9898,53.0899 11.7298,53.0899 L32.6188,53.0899 C32.1688,52.2599 31.7188,51.4199 31.2588,50.5899 L11.7298,50.5899 C11.3698,50.5899 11.0798,50.2999 11.0798,49.9399 L11.0798,22.6499 L2.4998,22.6499 L2.4998,8.0699 C2.4998,4.9999 4.9898,2.4999 8.0598,2.4999 L16.7598,2.4999 C17.8798,2.4999 18.8898,3.2599 19.2098,4.3599 C20.5898,9.0599 24.9698,12.3399 29.8598,12.3399 C34.7698,12.3399 39.1498,9.0599 40.5198,4.3599 C40.8398,3.2499 41.8298,2.4999 42.9798,2.4999 L51.5098,2.4999 C54.5798,2.4999 57.0798,4.9999 57.0798,8.0699 L57.0798,22.6499 L48.6598,22.6499 L48.6598,30.3849 L51.1598,32.1209 L51.1598,25.1499 L59.5798,25.1499 L59.5798,8.0699 C59.5798,3.6199 55.9598,-0.0001 51.5098,-0.0001" id="Fill-1" fill="#9FB6D7" mask="url(#mask-2)"></path>
                </g>
                <path d="M42.1836,49.4078 C42.2956,49.4078 42.4086,49.4268 42.5176,49.4658 C42.9166,49.6068 43.3686,50.0498 43.3686,50.4728 L43.3686,54.6658 C43.3686,55.0238 43.6606,55.3158 44.0186,55.3158 C44.3766,55.3158 44.6686,55.0238 44.6686,54.6658 L44.6686,50.4728 C44.6686,50.0498 44.9356,49.6728 45.3346,49.5308 C45.7206,49.3918 46.3356,49.4398 46.6066,49.7498 C47.5056,50.7778 48.8546,51.2438 50.2226,50.9878 C51.6836,50.7168 52.8806,49.5638 53.2016,48.1218 C53.4426,47.0338 53.2336,45.9438 52.6126,45.0538 C52.3076,44.6168 52.3986,44.0168 52.8206,43.6908 C53.9686,42.8028 54.4996,41.4078 54.2426,39.9608 L54.2426,39.9598 C53.9686,38.4248 52.7046,37.1708 51.1646,36.9098 C50.4786,36.7928 49.8086,36.8508 49.1756,37.0828 C48.8736,37.1928 48.5386,37.1508 48.2736,36.9708 C48.0066,36.7918 47.8436,36.4958 47.8336,36.1748 C47.7676,34.1018 46.0916,32.4788 44.0186,32.4788 C41.9456,32.4788 40.2696,34.1018 40.2036,36.1748 C40.1936,36.4958 40.0306,36.7918 39.7636,36.9708 C39.4976,37.1498 39.1626,37.1898 38.8616,37.0828 C38.2276,36.8498 37.5586,36.7928 36.8716,36.9098 C35.3336,37.1708 34.0676,38.4248 33.7936,39.9608 C33.5366,41.4078 34.0686,42.8028 35.2166,43.6908 C35.6386,44.0168 35.7296,44.6178 35.4236,45.0548 C34.8026,45.9428 34.5936,47.0328 34.8356,48.1218 C35.1566,49.5638 36.3536,50.7168 37.8146,50.9878 C39.1836,51.2428 40.5316,50.7778 41.4306,49.7498 C41.6236,49.5278 41.9006,49.4078 42.1836,49.4078 M44.0186,57.3158 C42.5566,57.3158 41.3686,56.1278 41.3686,54.6658 L41.3686,52.3348 C40.2016,52.9798 38.8316,53.2088 37.4496,52.9548 C35.2096,52.5378 33.3746,50.7698 32.8826,48.5548 C32.5846,47.2108 32.7456,45.8618 33.3306,44.6758 C32.0646,43.3418 31.4936,41.4718 31.8256,39.6098 C32.2446,37.2578 34.1826,35.3368 36.5376,34.9368 C37.1476,34.8328 37.7646,34.8248 38.3666,34.9098 C38.9846,32.3468 41.2726,30.4788 44.0186,30.4788 C46.7646,30.4788 49.0526,32.3468 49.6706,34.9098 C50.2716,34.8258 50.8896,34.8338 51.4986,34.9368 C53.8556,35.3368 55.7926,37.2588 56.2106,39.6098 C56.5426,41.4718 55.9726,43.3418 54.7056,44.6758 C55.2916,45.8628 55.4526,47.2118 55.1546,48.5548 C54.6626,50.7698 52.8276,52.5378 50.5876,52.9548 C49.2096,53.2088 47.8346,52.9798 46.6686,52.3348 L46.6686,54.6658 C46.6686,56.1278 45.4806,57.3158 44.0186,57.3158" id="Fill-4" fill="#9FB6D7"></path>
            </g>
        </g>
    </g>
</svg>