<?xml version="1.0" encoding="UTF-8"?>
<svg width="60px" height="56px" viewBox="0 0 60 56" version="1.1" xmlns="http://www.w3.org/2000/svg" xmlns:xlink="http://www.w3.org/1999/xlink">
    <title>66749941-5F2D-4C26-9BEF-CEBE13CDF6DA</title>
    <g id="Impact-Counter-6R" stroke="none" stroke-width="1" fill="none" fill-rule="evenodd">
        <g id="6R" transform="translate(-1352.000000, -554.000000)" fill="#9FB6D7">
            <g id="Group-5" transform="translate(1352.000000, 554.000000)">
                <path d="M38.52,13.5 L36.01,10.98 C38.58,9.59 40.52,7.22 41.34,4.36 C41.55,3.65 42.07,3.05 42.74,2.73 L47.47,2.73 L38.52,13.5 Z M11.73,50.59 C11.37,50.59 11.08,50.3 11.08,49.94 L11.08,22.66 L2.5,22.66 L2.5,8.07 C2.5,5 5,2.5 8.07,2.5 L8.67,2.5 L21.69,17.17 L24.62,14.24 L26.92,11.94 C27.447,12.088 27.99,12.186 28.54,12.252 L28.54,50.59 L11.73,50.59 Z M17.62,2.73 C18.29,3.05 18.81,3.64 19.02,4.36 C19.84,7.21 21.78,9.59 24.35,10.98 L21.8,13.53 L12.22,2.73 L17.62,2.73 Z M51.52,0 L42.98,0 C42.38,0 41.79,0.1 41.23,0.31 C39.73,0.88 38.57,2.13 38.12,3.66 C37.34,6.36 35.29,8.5 32.57,9.4 C32.49,9.43 32.41,9.45 32.33,9.47 L32.19,9.52 C30.62,9.96 28.92,9.94 27.41,9.48 C24.6,8.65 22.43,6.47 21.61,3.66 C20.99,1.51 18.99,0 16.76,0 L8.07,0 C3.62,0 0,3.62 0,8.07 L0,25.16 L8.58,25.16 L8.58,49.94 C8.58,51.68 9.99,53.09 11.73,53.09 L40.507,53.09 C40.477,52.68 40.517,52.25 40.637,51.84 L41.007,50.59 L31.04,50.59 L31.04,12.258 C31.661,12.19 32.282,12.087 32.9,11.91 L33.03,11.87 C33.12,11.85 33.2,11.82 33.28,11.79 L34.99,13.5 L38.69,17.2 L50.91,2.5 L51.52,2.5 C54.59,2.5 57.08,5 57.08,8.07 L57.08,22.66 L48.66,22.66 L48.66,29.379 L51.16,29.379 L51.16,25.16 L59.58,25.16 L59.58,8.07 C59.58,3.62 55.96,0 51.52,0 L51.52,0 Z" id="Fill-1"></path>
                <path d="M55.7302,52.9006 C55.5502,53.1306 55.2902,53.2606 55.0002,53.2606 L45.2802,53.2606 C44.9902,53.2606 44.7202,53.1306 44.5502,52.9006 C44.4902,52.8206 44.4502,52.7306 44.4102,52.6406 C44.3502,52.4706 44.3502,52.2806 44.4002,52.0906 L44.9702,50.1406 L46.3802,45.3506 L53.9002,45.3506 L55.8702,52.0906 C55.9602,52.3706 55.9002,52.6606 55.7302,52.9006 L55.7302,52.9006 Z M47.5402,41.3806 C47.6302,41.0706 47.6702,40.7406 47.6702,40.4206 L47.6702,34.3506 C47.6702,34.1566 47.7432,33.9866 47.8452,33.8386 L52.4262,33.8386 C52.5272,33.9866 52.6002,34.1566 52.6002,34.3506 L52.6002,40.4206 C52.6002,40.7506 52.6502,41.0706 52.7402,41.3806 L53.1702,42.8506 L47.1102,42.8506 L47.5402,41.3806 Z M55.1402,40.6706 C55.1202,40.5906 55.1002,40.5106 55.1002,40.4206 L55.1002,34.3506 C55.1002,34.1726 55.0742,34.0006 55.0472,33.8296 C55.8342,33.7836 56.4592,33.1366 56.4592,32.3386 C56.4592,31.5106 55.7872,30.8386 54.9592,30.8386 L45.3142,30.8386 C44.4862,30.8386 43.8142,31.5106 43.8142,32.3386 C43.8142,33.1356 44.4382,33.7816 45.2222,33.8296 C45.1962,34.0006 45.1702,34.1716 45.1702,34.3506 L45.1702,40.4206 C45.1702,40.5106 45.1602,40.5906 45.1402,40.6806 L42.3702,50.1406 L42.0002,51.3906 C41.8802,51.8006 41.8402,52.2306 41.8702,52.6406 C41.9302,53.2706 42.1602,53.8706 42.5502,54.3906 C43.2002,55.2606 44.1902,55.7606 45.2802,55.7606 L55.0002,55.7606 C56.0802,55.7606 57.0802,55.2606 57.7302,54.4006 C58.3802,53.5306 58.5802,52.4306 58.2702,51.3906 L55.1402,40.6706 Z" id="Fill-3"></path>
            </g>
        </g>
    </g>
</svg>